<?xml version="1.0" encoding="utf-8"?>
<!-- Generator: Adobe Illustrator 16.0.0, SVG Export Plug-In . SVG Version: 6.00 Build 0)  -->
<!DOCTYPE svg PUBLIC "-//W3C//DTD SVG 1.1//EN" "http://www.w3.org/Graphics/SVG/1.1/DTD/svg11.dtd">
<svg version="1.1" id="图层_1" xmlns="http://www.w3.org/2000/svg" xmlns:xlink="http://www.w3.org/1999/xlink" x="0px" y="0px"
	 width="960px" height="560px" viewBox="0 0 960 560" enable-background="new 0 0 960 560" xml:space="preserve">
<g>
	<path fill-rule="evenodd" clip-rule="evenodd" fill="none" d="M470,187c1.25,0.5,3-1,5-1c0,0.333,0,0.667,0,1c-0.667,0-1.333,0-2,0
		c-25.664,21.665-51.336,43.335-77,65C406.077,207.209,446,189.5,470,187z"/>
	<path fill-rule="evenodd" clip-rule="evenodd" fill="none" d="M486,187c2,0,4,0,6,0c-32.664,27.331-65.336,54.669-98,82
		c0-1,0-2,0-3C424.664,239.669,455.336,213.331,486,187z"/>
	<path fill-rule="evenodd" clip-rule="evenodd" fill="none" d="M501,190c3.635,0.644,3.027,0.403,5,2
		c-12.768,6.131-18.883,21.989-35,24c0.667-1,1.333-2,2-3C482.332,205.334,491.668,197.666,501,190z"/>
	<path fill-rule="evenodd" clip-rule="evenodd" fill="none" d="M514,195c1.333,0.333,2.667,0.667,4,1c-0.667,1-1.333,2-2,3
		c-7.666,6-15.334,12.001-23,18c-1.333,0-2.667,0-4,0c1.666-2,3.334-4,5-6C500.666,205.667,507.334,200.333,514,195z"/>
	<path fill-rule="evenodd" clip-rule="evenodd" fill="none" d="M525,201c1,0.667,2,1.333,3,2c-0.667,1-1.333,2-2,3
		c-6.666,5.333-13.334,10.667-20,16c-1.333-0.333-2.667-0.667-4-1c0.667-1,1.333-2,2-3C510.999,212.334,518.001,206.666,525,201z"/>
	<path fill-rule="evenodd" clip-rule="evenodd" fill="none" d="M535,208c2.847,3.416,2.355,0.944,1,5
		c-7.333,5.333-14.667,10.667-22,16c-0.333-0.667-0.667-1.333-1-2C520.333,220.667,527.667,214.333,535,208z"/>
	<path fill-rule="evenodd" clip-rule="evenodd" fill="none" d="M542,217c3.026,1.932,1.618,0.205,3,4
		c-7.666,5.666-15.334,11.334-23,17c-0.333-0.667-0.667-1.333-1-2C527.999,229.667,535.001,223.333,542,217z"/>
	<path fill-rule="evenodd" clip-rule="evenodd" fill="none" d="M549,227c16.58,17.287,17.128,54.196,9,74
		c-24.604,52.798-87.718,73.093-135,33c7.333-6.332,14.667-12.667,22-19c53.082,31.133,103.435-13.488,83-70
		C534.999,239.001,542.001,233,549,227z"/>
	<path fill-rule="evenodd" clip-rule="evenodd" fill="none" d="M425,254c0.72,9.478-22.113,24.555-30,30c0-1.333,0-2.666,0-4
		C404.999,271.334,415.001,262.666,425,254z"/>
	<path fill-rule="evenodd" clip-rule="evenodd" fill="none" d="M422,272c0.667,0,1.333,0,2,0c-3.149,10.034-17.997,19.361-26,25
		c-0.333-1-0.667-2-1-3C405.333,286.668,413.667,279.333,422,272z"/>
	<path fill-rule="evenodd" clip-rule="evenodd" fill="none" d="M425,285c1.65,8.914-15.564,16.894-21,23
		c-0.667-0.333-1.333-0.666-2-1c0-0.333,0-0.666,0-1C409.666,299.001,417.334,292,425,285z"/>
	<path fill-rule="evenodd" clip-rule="evenodd" fill="none" d="M429,297c1,0.667,2,1.334,3,2c-0.667,1-1.333,2-2,3
		c-7.333,5.333-14.667,10.668-22,16c-0.333-0.666-0.667-1.333-1-2C414.333,309.668,421.667,303.333,429,297z"/>
	<path fill-rule="evenodd" clip-rule="evenodd" fill="none" d="M436,306c3.393,4.457,0.775,4.295-3,9
		c-5.333,4.333-10.667,8.668-16,13c-1-0.666-2-1.333-3-2c1.333-1.666,2.667-3.334,4-5C424,316,430,311,436,306z"/>
</g>
<g>
	<path fill-rule="evenodd" clip-rule="evenodd" fill="#FF7BAC" d="M469,187c1.25,0.5,3-1,5-1c0,0.333,0,0.667,0,1
		c-0.667,0-1.333,0-2,0c-25.664,21.665-51.336,43.335-77,65C405.077,207.209,445,189.5,469,187z"/>
	<path fill-rule="evenodd" clip-rule="evenodd" fill="#FF7BAC" d="M485,187c2,0,4,0,6,0c-32.664,27.331-65.336,54.669-98,82
		c0-1,0-2,0-3C423.664,239.669,454.336,213.331,485,187z"/>
	<path fill-rule="evenodd" clip-rule="evenodd" fill="#FF7BAC" d="M500,190c3.635,0.644,3.027,0.403,5,2
		c-10.101,4.85-18.979,17.646-29,23c-2.646,1.414-2.633,0.58-6,1c0.667-1,1.333-2,2-3C481.332,205.334,490.668,197.666,500,190z"/>
	<path fill-rule="evenodd" clip-rule="evenodd" fill="#FF7BAC" d="M513,195c1.333,0.333,2.667,0.667,4,1c-0.667,1-1.333,2-2,3
		c-7.666,6-15.334,12.001-23,18c-1.333,0-2.667,0-4,0c1.666-2,3.334-4,5-6C499.666,205.667,506.334,200.333,513,195z"/>
	<path fill-rule="evenodd" clip-rule="evenodd" fill="#FF7BAC" d="M524,201c1,0.667,2,1.333,3,2c-0.667,1-1.333,2-2,3
		c-6.666,5.333-13.334,10.667-20,16c-1.333-0.333-2.667-0.667-4-1c0.667-1,1.333-2,2-3C509.999,212.334,517.001,206.666,524,201z"/>
	<path fill-rule="evenodd" clip-rule="evenodd" fill="#FF7BAC" d="M534,208c2.847,3.416,2.355,0.944,1,5
		c-7.333,5.333-14.667,10.667-22,16c-0.333-0.667-0.667-1.333-1-2C519.333,220.667,526.667,214.333,534,208z"/>
	<path fill-rule="evenodd" clip-rule="evenodd" fill="#FF7BAC" d="M541,217c3.026,1.932,1.618-0.795,3,3
		c-7.666,5.666-14.334,12.334-22,18c-0.333-0.667-1.667-1.333-2-2C526.999,229.667,534.001,223.333,541,217z"/>
	<path fill-rule="evenodd" clip-rule="evenodd" fill="#FF7BAC" d="M548,227c16.58,17.287,17.128,54.196,9,74
		c-24.604,52.798-87.718,73.093-135,33c7.333-6.332,14.667-12.667,22-19c53.082,31.133,103.435-13.488,83-70
		C533.999,239.001,541.001,233,548,227z"/>
	<path fill-rule="evenodd" clip-rule="evenodd" fill="#FF7BAC" d="M424,254c0.12,1.578,1.649,2.701-0.266,4.853
		C421.821,261.955,402.449,276.127,394,284c0-1.333,0-2.666,0-4C403.999,271.334,414.001,262.666,424,254z"/>
	<path fill-rule="evenodd" clip-rule="evenodd" fill="#FF7BAC" d="M421,272c0.667,0,1.333,0,2,0
		c0.607,1.454,0.691,0.906,0.503,1.356C418.773,279.87,405.141,289.865,397,297c-0.333-1-0.667-2-1-3
		C404.333,286.668,412.667,279.333,421,272z"/>
	<path fill-rule="evenodd" clip-rule="evenodd" fill="#FF7BAC" d="M424,285c0.247,1.333,1.072,2.646,0.577,3.934
		C419.431,294.092,407.623,302.807,403,308c-0.667-0.333-1.333-0.666-2-1c0-0.333,0-0.666,0-1C408.666,299.001,416.334,292,424,285z
		"/>
	<path fill-rule="evenodd" clip-rule="evenodd" fill="#FF7BAC" d="M428,297c1,0.667,2,1.334,3,2c-0.667,1-2.333,2-3,3
		c-7.333,5.333-12.667,10.668-20,16c-0.333-0.666-1.667-1.333-2-2C413.333,309.668,420.667,303.333,428,297z"/>
	<path fill-rule="evenodd" clip-rule="evenodd" fill="#FF7BAC" d="M435,306c3.393,4.457,0.775,4.295-3,9
		c-5.333,4.333-10.667,8.668-16,13c-1-0.666-2-1.333-3-2c1.333-1.666,2.667-3.334,4-5C423,316,429,311,435,306z"/>
</g>
</svg>
